M48
; DRILL file {KiCad (5.1.4)-1} date 03/14/22 12:27:22
; FORMAT={-:-/ absolute / inch / decimal}
; #@! TF.CreationDate,2022-03-14T12:27:22-07:00
; #@! TF.GenerationSoftware,Kicad,Pcbnew,(5.1.4)-1
FMAT,2
INCH
T1C0.0394
T2C0.0433
%
G90
G05
T1
X5.6562Y-2.4312
X5.6562Y-2.5312
X5.7562Y-2.4312
X5.7562Y-2.5312
X5.8563Y-2.4312
X5.8563Y-2.5312
T2
X3.95Y-2.2
X3.95Y-2.8
X4.05Y-2.2
X4.05Y-2.8
X4.15Y-2.2
X4.15Y-2.8
X4.25Y-2.2
X4.25Y-2.8
X4.35Y-2.2
X4.35Y-2.8
X4.45Y-2.2
X4.45Y-2.8
X4.55Y-2.2
X4.55Y-2.8
X4.65Y-2.2
X4.65Y-2.8
X4.75Y-2.2
X4.75Y-2.8
X4.85Y-2.2
X4.85Y-2.8
X4.95Y-2.2
X4.95Y-2.8
X5.05Y-2.2
X5.05Y-2.8
T0
M30
