G04 #@! TF.GenerationSoftware,KiCad,Pcbnew,(5.1.4)-1*
G04 #@! TF.CreationDate,2022-03-14T12:27:08-07:00*
G04 #@! TF.ProjectId,Micro-Flasher-ASP,4d696372-6f2d-4466-9c61-736865722d41,rev?*
G04 #@! TF.SameCoordinates,Original*
G04 #@! TF.FileFunction,Copper,L1,Top*
G04 #@! TF.FilePolarity,Positive*
%FSLAX46Y46*%
G04 Gerber Fmt 4.6, Leading zero omitted, Abs format (unit mm)*
G04 Created by KiCad (PCBNEW (5.1.4)-1) date 2022-03-14 12:27:08*
%MOMM*%
%LPD*%
G04 APERTURE LIST*
%ADD10O,1.700000X1.700000*%
%ADD11R,1.700000X1.700000*%
%ADD12C,1.600000*%
%ADD13R,1.600000X1.600000*%
%ADD14C,0.250000*%
G04 APERTURE END LIST*
D10*
X148748750Y-61753750D03*
X148748750Y-64293750D03*
X146208750Y-61753750D03*
X146208750Y-64293750D03*
X143668750Y-61753750D03*
D11*
X143668750Y-64293750D03*
D12*
X100330000Y-55880000D03*
X102870000Y-55880000D03*
X105410000Y-55880000D03*
X107950000Y-55880000D03*
X110490000Y-55880000D03*
X113030000Y-55880000D03*
X115570000Y-55880000D03*
X118110000Y-55880000D03*
X120650000Y-55880000D03*
X123190000Y-55880000D03*
X125730000Y-55880000D03*
X128270000Y-55880000D03*
X128270000Y-71120000D03*
X125730000Y-71120000D03*
X123190000Y-71120000D03*
X120650000Y-71120000D03*
X118110000Y-71120000D03*
X115570000Y-71120000D03*
X113030000Y-71120000D03*
X110490000Y-71120000D03*
X107950000Y-71120000D03*
X105410000Y-71120000D03*
X102870000Y-71120000D03*
D13*
X100330000Y-71120000D03*
D14*
X123989999Y-56679999D02*
X123190000Y-55880000D01*
X128603749Y-61293749D02*
X123989999Y-56679999D01*
X146668749Y-61293749D02*
X128603749Y-61293749D01*
X147668750Y-62293750D02*
X146668749Y-61293749D01*
X108749999Y-55080001D02*
X107950000Y-55880000D01*
X109075001Y-54754999D02*
X108749999Y-55080001D01*
X116110001Y-54754999D02*
X109075001Y-54754999D01*
X116123752Y-54768750D02*
X116110001Y-54754999D01*
X117475000Y-54768750D02*
X116123752Y-54768750D01*
X117488751Y-54754999D02*
X117475000Y-54768750D01*
X148668751Y-61813749D02*
X141610001Y-54754999D01*
X148668751Y-63293749D02*
X148668751Y-61813749D01*
X141610001Y-54754999D02*
X117488751Y-54754999D01*
X147668750Y-64293750D02*
X148668751Y-63293749D01*
X111823750Y-62293750D02*
X105410000Y-55880000D01*
X143668750Y-62293750D02*
X111823750Y-62293750D01*
X106209999Y-71919999D02*
X105410000Y-71120000D01*
X106535001Y-72245001D02*
X106209999Y-71919999D01*
X136642499Y-72245001D02*
X106535001Y-72245001D01*
X143668750Y-65218750D02*
X136642499Y-72245001D01*
X143668750Y-64293750D02*
X143668750Y-65218750D01*
M02*
