G04 #@! TF.GenerationSoftware,KiCad,Pcbnew,(5.1.4)-1*
G04 #@! TF.CreationDate,2022-03-14T12:27:08-07:00*
G04 #@! TF.ProjectId,Micro-Flasher-ASP,4d696372-6f2d-4466-9c61-736865722d41,rev?*
G04 #@! TF.SameCoordinates,Original*
G04 #@! TF.FileFunction,Legend,Top*
G04 #@! TF.FilePolarity,Positive*
%FSLAX46Y46*%
G04 Gerber Fmt 4.6, Leading zero omitted, Abs format (unit mm)*
G04 Created by KiCad (PCBNEW (5.1.4)-1) date 2022-03-14 12:27:08*
%MOMM*%
%LPD*%
G04 APERTURE LIST*
%ADD10C,0.150000*%
%ADD11C,0.125000*%
%ADD12C,0.120000*%
G04 APERTURE END LIST*
D10*
X131725000Y-69702380D02*
X131725000Y-68702380D01*
X131963095Y-68702380D01*
X132105952Y-68750000D01*
X132201190Y-68845238D01*
X132248809Y-68940476D01*
X132296428Y-69130952D01*
X132296428Y-69273809D01*
X132248809Y-69464285D01*
X132201190Y-69559523D01*
X132105952Y-69654761D01*
X131963095Y-69702380D01*
X131725000Y-69702380D01*
X132629761Y-69035714D02*
X132820238Y-69702380D01*
X133010714Y-69226190D01*
X133201190Y-69702380D01*
X133391666Y-69035714D01*
X134153571Y-69654761D02*
X134058333Y-69702380D01*
X133867857Y-69702380D01*
X133772619Y-69654761D01*
X133725000Y-69559523D01*
X133725000Y-69178571D01*
X133772619Y-69083333D01*
X133867857Y-69035714D01*
X134058333Y-69035714D01*
X134153571Y-69083333D01*
X134201190Y-69178571D01*
X134201190Y-69273809D01*
X133725000Y-69369047D01*
X135010714Y-69654761D02*
X134915476Y-69702380D01*
X134725000Y-69702380D01*
X134629761Y-69654761D01*
X134582142Y-69559523D01*
X134582142Y-69178571D01*
X134629761Y-69083333D01*
X134725000Y-69035714D01*
X134915476Y-69035714D01*
X135010714Y-69083333D01*
X135058333Y-69178571D01*
X135058333Y-69273809D01*
X134582142Y-69369047D01*
X135486904Y-69702380D02*
X135486904Y-68702380D01*
X135486904Y-69083333D02*
X135582142Y-69035714D01*
X135772619Y-69035714D01*
X135867857Y-69083333D01*
X135915476Y-69130952D01*
X135963095Y-69226190D01*
X135963095Y-69511904D01*
X135915476Y-69607142D01*
X135867857Y-69654761D01*
X135772619Y-69702380D01*
X135582142Y-69702380D01*
X135486904Y-69654761D01*
X136344047Y-69654761D02*
X136439285Y-69702380D01*
X136629761Y-69702380D01*
X136725000Y-69654761D01*
X136772619Y-69559523D01*
X136772619Y-69511904D01*
X136725000Y-69416666D01*
X136629761Y-69369047D01*
X136486904Y-69369047D01*
X136391666Y-69321428D01*
X136344047Y-69226190D01*
X136344047Y-69178571D01*
X136391666Y-69083333D01*
X136486904Y-69035714D01*
X136629761Y-69035714D01*
X136725000Y-69083333D01*
X137963095Y-69702380D02*
X137963095Y-68702380D01*
X138296428Y-69416666D01*
X138629761Y-68702380D01*
X138629761Y-69702380D01*
X139105952Y-69702380D02*
X139105952Y-69035714D01*
X139105952Y-68702380D02*
X139058333Y-68750000D01*
X139105952Y-68797619D01*
X139153571Y-68750000D01*
X139105952Y-68702380D01*
X139105952Y-68797619D01*
X140010714Y-69654761D02*
X139915476Y-69702380D01*
X139725000Y-69702380D01*
X139629761Y-69654761D01*
X139582142Y-69607142D01*
X139534523Y-69511904D01*
X139534523Y-69226190D01*
X139582142Y-69130952D01*
X139629761Y-69083333D01*
X139725000Y-69035714D01*
X139915476Y-69035714D01*
X140010714Y-69083333D01*
X140439285Y-69702380D02*
X140439285Y-69035714D01*
X140439285Y-69226190D02*
X140486904Y-69130952D01*
X140534523Y-69083333D01*
X140629761Y-69035714D01*
X140725000Y-69035714D01*
X141201190Y-69702380D02*
X141105952Y-69654761D01*
X141058333Y-69607142D01*
X141010714Y-69511904D01*
X141010714Y-69226190D01*
X141058333Y-69130952D01*
X141105952Y-69083333D01*
X141201190Y-69035714D01*
X141344047Y-69035714D01*
X141439285Y-69083333D01*
X141486904Y-69130952D01*
X141534523Y-69226190D01*
X141534523Y-69511904D01*
X141486904Y-69607142D01*
X141439285Y-69654761D01*
X141344047Y-69702380D01*
X141201190Y-69702380D01*
X143058333Y-69178571D02*
X142725000Y-69178571D01*
X142725000Y-69702380D02*
X142725000Y-68702380D01*
X143201190Y-68702380D01*
X143725000Y-69702380D02*
X143629761Y-69654761D01*
X143582142Y-69559523D01*
X143582142Y-68702380D01*
X144534523Y-69702380D02*
X144534523Y-69178571D01*
X144486904Y-69083333D01*
X144391666Y-69035714D01*
X144201190Y-69035714D01*
X144105952Y-69083333D01*
X144534523Y-69654761D02*
X144439285Y-69702380D01*
X144201190Y-69702380D01*
X144105952Y-69654761D01*
X144058333Y-69559523D01*
X144058333Y-69464285D01*
X144105952Y-69369047D01*
X144201190Y-69321428D01*
X144439285Y-69321428D01*
X144534523Y-69273809D01*
X144963095Y-69654761D02*
X145058333Y-69702380D01*
X145248809Y-69702380D01*
X145344047Y-69654761D01*
X145391666Y-69559523D01*
X145391666Y-69511904D01*
X145344047Y-69416666D01*
X145248809Y-69369047D01*
X145105952Y-69369047D01*
X145010714Y-69321428D01*
X144963095Y-69226190D01*
X144963095Y-69178571D01*
X145010714Y-69083333D01*
X145105952Y-69035714D01*
X145248809Y-69035714D01*
X145344047Y-69083333D01*
X145820238Y-69702380D02*
X145820238Y-68702380D01*
X146248809Y-69702380D02*
X146248809Y-69178571D01*
X146201190Y-69083333D01*
X146105952Y-69035714D01*
X145963095Y-69035714D01*
X145867857Y-69083333D01*
X145820238Y-69130952D01*
X147105952Y-69654761D02*
X147010714Y-69702380D01*
X146820238Y-69702380D01*
X146725000Y-69654761D01*
X146677380Y-69559523D01*
X146677380Y-69178571D01*
X146725000Y-69083333D01*
X146820238Y-69035714D01*
X147010714Y-69035714D01*
X147105952Y-69083333D01*
X147153571Y-69178571D01*
X147153571Y-69273809D01*
X146677380Y-69369047D01*
X147582142Y-69702380D02*
X147582142Y-69035714D01*
X147582142Y-69226190D02*
X147629761Y-69130952D01*
X147677380Y-69083333D01*
X147772619Y-69035714D01*
X147867857Y-69035714D01*
X132248809Y-70828571D02*
X132391666Y-70876190D01*
X132439285Y-70923809D01*
X132486904Y-71019047D01*
X132486904Y-71161904D01*
X132439285Y-71257142D01*
X132391666Y-71304761D01*
X132296428Y-71352380D01*
X131915476Y-71352380D01*
X131915476Y-70352380D01*
X132248809Y-70352380D01*
X132344047Y-70400000D01*
X132391666Y-70447619D01*
X132439285Y-70542857D01*
X132439285Y-70638095D01*
X132391666Y-70733333D01*
X132344047Y-70780952D01*
X132248809Y-70828571D01*
X131915476Y-70828571D01*
X132820238Y-70685714D02*
X133058333Y-71352380D01*
X133296428Y-70685714D02*
X133058333Y-71352380D01*
X132963095Y-71590476D01*
X132915476Y-71638095D01*
X132820238Y-71685714D01*
X133677380Y-71257142D02*
X133725000Y-71304761D01*
X133677380Y-71352380D01*
X133629761Y-71304761D01*
X133677380Y-71257142D01*
X133677380Y-71352380D01*
X133677380Y-70733333D02*
X133725000Y-70780952D01*
X133677380Y-70828571D01*
X133629761Y-70780952D01*
X133677380Y-70733333D01*
X133677380Y-70828571D01*
X134915476Y-71352380D02*
X134915476Y-70352380D01*
X135486904Y-71352380D02*
X135058333Y-70780952D01*
X135486904Y-70352380D02*
X134915476Y-70923809D01*
X136296428Y-71304761D02*
X136201190Y-71352380D01*
X136010714Y-71352380D01*
X135915476Y-71304761D01*
X135867857Y-71209523D01*
X135867857Y-70828571D01*
X135915476Y-70733333D01*
X136010714Y-70685714D01*
X136201190Y-70685714D01*
X136296428Y-70733333D01*
X136344047Y-70828571D01*
X136344047Y-70923809D01*
X135867857Y-71019047D01*
X136677380Y-70685714D02*
X136915476Y-71352380D01*
X137153571Y-70685714D02*
X136915476Y-71352380D01*
X136820238Y-71590476D01*
X136772619Y-71638095D01*
X136677380Y-71685714D01*
X137534523Y-71352380D02*
X137534523Y-70352380D01*
X137534523Y-70733333D02*
X137629761Y-70685714D01*
X137820238Y-70685714D01*
X137915476Y-70733333D01*
X137963095Y-70780952D01*
X138010714Y-70876190D01*
X138010714Y-71161904D01*
X137963095Y-71257142D01*
X137915476Y-71304761D01*
X137820238Y-71352380D01*
X137629761Y-71352380D01*
X137534523Y-71304761D01*
X138582142Y-71352380D02*
X138486904Y-71304761D01*
X138439285Y-71257142D01*
X138391666Y-71161904D01*
X138391666Y-70876190D01*
X138439285Y-70780952D01*
X138486904Y-70733333D01*
X138582142Y-70685714D01*
X138725000Y-70685714D01*
X138820238Y-70733333D01*
X138867857Y-70780952D01*
X138915476Y-70876190D01*
X138915476Y-71161904D01*
X138867857Y-71257142D01*
X138820238Y-71304761D01*
X138725000Y-71352380D01*
X138582142Y-71352380D01*
X139772619Y-71352380D02*
X139772619Y-70828571D01*
X139725000Y-70733333D01*
X139629761Y-70685714D01*
X139439285Y-70685714D01*
X139344047Y-70733333D01*
X139772619Y-71304761D02*
X139677380Y-71352380D01*
X139439285Y-71352380D01*
X139344047Y-71304761D01*
X139296428Y-71209523D01*
X139296428Y-71114285D01*
X139344047Y-71019047D01*
X139439285Y-70971428D01*
X139677380Y-70971428D01*
X139772619Y-70923809D01*
X140248809Y-71352380D02*
X140248809Y-70685714D01*
X140248809Y-70876190D02*
X140296428Y-70780952D01*
X140344047Y-70733333D01*
X140439285Y-70685714D01*
X140534523Y-70685714D01*
X141296428Y-71352380D02*
X141296428Y-70352380D01*
X141296428Y-71304761D02*
X141201190Y-71352380D01*
X141010714Y-71352380D01*
X140915476Y-71304761D01*
X140867857Y-71257142D01*
X140820238Y-71161904D01*
X140820238Y-70876190D01*
X140867857Y-70780952D01*
X140915476Y-70733333D01*
X141010714Y-70685714D01*
X141201190Y-70685714D01*
X141296428Y-70733333D01*
X142534523Y-71352380D02*
X142534523Y-70352380D01*
X142772619Y-70352380D01*
X142915476Y-70400000D01*
X143010714Y-70495238D01*
X143058333Y-70590476D01*
X143105952Y-70780952D01*
X143105952Y-70923809D01*
X143058333Y-71114285D01*
X143010714Y-71209523D01*
X142915476Y-71304761D01*
X142772619Y-71352380D01*
X142534523Y-71352380D01*
X143439285Y-70685714D02*
X143629761Y-71352380D01*
X143820238Y-70876190D01*
X144010714Y-71352380D01*
X144201190Y-70685714D01*
X144963095Y-71304761D02*
X144867857Y-71352380D01*
X144677380Y-71352380D01*
X144582142Y-71304761D01*
X144534523Y-71209523D01*
X144534523Y-70828571D01*
X144582142Y-70733333D01*
X144677380Y-70685714D01*
X144867857Y-70685714D01*
X144963095Y-70733333D01*
X145010714Y-70828571D01*
X145010714Y-70923809D01*
X144534523Y-71019047D01*
X145820238Y-71304761D02*
X145725000Y-71352380D01*
X145534523Y-71352380D01*
X145439285Y-71304761D01*
X145391666Y-71209523D01*
X145391666Y-70828571D01*
X145439285Y-70733333D01*
X145534523Y-70685714D01*
X145725000Y-70685714D01*
X145820238Y-70733333D01*
X145867857Y-70828571D01*
X145867857Y-70923809D01*
X145391666Y-71019047D01*
X146296428Y-71352380D02*
X146296428Y-70352380D01*
X146296428Y-70733333D02*
X146391666Y-70685714D01*
X146582142Y-70685714D01*
X146677380Y-70733333D01*
X146725000Y-70780952D01*
X146772619Y-70876190D01*
X146772619Y-71161904D01*
X146725000Y-71257142D01*
X146677380Y-71304761D01*
X146582142Y-71352380D01*
X146391666Y-71352380D01*
X146296428Y-71304761D01*
X147153571Y-71304761D02*
X147248809Y-71352380D01*
X147439285Y-71352380D01*
X147534523Y-71304761D01*
X147582142Y-71209523D01*
X147582142Y-71161904D01*
X147534523Y-71066666D01*
X147439285Y-71019047D01*
X147296428Y-71019047D01*
X147201190Y-70971428D01*
X147153571Y-70876190D01*
X147153571Y-70828571D01*
X147201190Y-70733333D01*
X147296428Y-70685714D01*
X147439285Y-70685714D01*
X147534523Y-70733333D01*
X110415476Y-63328571D02*
X110082142Y-63328571D01*
X110082142Y-63852380D02*
X110082142Y-62852380D01*
X110558333Y-62852380D01*
X111367857Y-63852380D02*
X111367857Y-63328571D01*
X111320238Y-63233333D01*
X111225000Y-63185714D01*
X111034523Y-63185714D01*
X110939285Y-63233333D01*
X111367857Y-63804761D02*
X111272619Y-63852380D01*
X111034523Y-63852380D01*
X110939285Y-63804761D01*
X110891666Y-63709523D01*
X110891666Y-63614285D01*
X110939285Y-63519047D01*
X111034523Y-63471428D01*
X111272619Y-63471428D01*
X111367857Y-63423809D01*
X112272619Y-63804761D02*
X112177380Y-63852380D01*
X111986904Y-63852380D01*
X111891666Y-63804761D01*
X111844047Y-63757142D01*
X111796428Y-63661904D01*
X111796428Y-63376190D01*
X111844047Y-63280952D01*
X111891666Y-63233333D01*
X111986904Y-63185714D01*
X112177380Y-63185714D01*
X112272619Y-63233333D01*
X113082142Y-63804761D02*
X112986904Y-63852380D01*
X112796428Y-63852380D01*
X112701190Y-63804761D01*
X112653571Y-63709523D01*
X112653571Y-63328571D01*
X112701190Y-63233333D01*
X112796428Y-63185714D01*
X112986904Y-63185714D01*
X113082142Y-63233333D01*
X113129761Y-63328571D01*
X113129761Y-63423809D01*
X112653571Y-63519047D01*
X114320238Y-62852380D02*
X114320238Y-63661904D01*
X114367857Y-63757142D01*
X114415476Y-63804761D01*
X114510714Y-63852380D01*
X114701190Y-63852380D01*
X114796428Y-63804761D01*
X114844047Y-63757142D01*
X114891666Y-63661904D01*
X114891666Y-62852380D01*
X115367857Y-63852380D02*
X115367857Y-62852380D01*
X115748809Y-62852380D01*
X115844047Y-62900000D01*
X115891666Y-62947619D01*
X115939285Y-63042857D01*
X115939285Y-63185714D01*
X115891666Y-63280952D01*
X115844047Y-63328571D01*
X115748809Y-63376190D01*
X115367857Y-63376190D01*
X116367857Y-63757142D02*
X116415476Y-63804761D01*
X116367857Y-63852380D01*
X116320238Y-63804761D01*
X116367857Y-63757142D01*
X116367857Y-63852380D01*
X116367857Y-63471428D02*
X116320238Y-62900000D01*
X116367857Y-62852380D01*
X116415476Y-62900000D01*
X116367857Y-63471428D01*
X116367857Y-62852380D01*
D11*
X145464285Y-66901190D02*
X145464285Y-66401190D01*
X145630952Y-66758333D01*
X145797619Y-66401190D01*
X145797619Y-66901190D01*
X146130952Y-66401190D02*
X146226190Y-66401190D01*
X146273809Y-66425000D01*
X146321428Y-66472619D01*
X146345238Y-66567857D01*
X146345238Y-66734523D01*
X146321428Y-66829761D01*
X146273809Y-66877380D01*
X146226190Y-66901190D01*
X146130952Y-66901190D01*
X146083333Y-66877380D01*
X146035714Y-66829761D01*
X146011904Y-66734523D01*
X146011904Y-66567857D01*
X146035714Y-66472619D01*
X146083333Y-66425000D01*
X146130952Y-66401190D01*
X146535714Y-66877380D02*
X146607142Y-66901190D01*
X146726190Y-66901190D01*
X146773809Y-66877380D01*
X146797619Y-66853571D01*
X146821428Y-66805952D01*
X146821428Y-66758333D01*
X146797619Y-66710714D01*
X146773809Y-66686904D01*
X146726190Y-66663095D01*
X146630952Y-66639285D01*
X146583333Y-66615476D01*
X146559523Y-66591666D01*
X146535714Y-66544047D01*
X146535714Y-66496428D01*
X146559523Y-66448809D01*
X146583333Y-66425000D01*
X146630952Y-66401190D01*
X146750000Y-66401190D01*
X146821428Y-66425000D01*
X147035714Y-66901190D02*
X147035714Y-66401190D01*
X143244047Y-66450000D02*
X143196428Y-66426190D01*
X143125000Y-66426190D01*
X143053571Y-66450000D01*
X143005952Y-66497619D01*
X142982142Y-66545238D01*
X142958333Y-66640476D01*
X142958333Y-66711904D01*
X142982142Y-66807142D01*
X143005952Y-66854761D01*
X143053571Y-66902380D01*
X143125000Y-66926190D01*
X143172619Y-66926190D01*
X143244047Y-66902380D01*
X143267857Y-66878571D01*
X143267857Y-66711904D01*
X143172619Y-66711904D01*
X143482142Y-66926190D02*
X143482142Y-66426190D01*
X143767857Y-66926190D01*
X143767857Y-66426190D01*
X144005952Y-66926190D02*
X144005952Y-66426190D01*
X144125000Y-66426190D01*
X144196428Y-66450000D01*
X144244047Y-66497619D01*
X144267857Y-66545238D01*
X144291666Y-66640476D01*
X144291666Y-66711904D01*
X144267857Y-66807142D01*
X144244047Y-66854761D01*
X144196428Y-66902380D01*
X144125000Y-66926190D01*
X144005952Y-66926190D01*
X147689285Y-59976190D02*
X147689285Y-59476190D01*
X147855952Y-59833333D01*
X148022619Y-59476190D01*
X148022619Y-59976190D01*
X148260714Y-59976190D02*
X148260714Y-59476190D01*
X148475000Y-59952380D02*
X148546428Y-59976190D01*
X148665476Y-59976190D01*
X148713095Y-59952380D01*
X148736904Y-59928571D01*
X148760714Y-59880952D01*
X148760714Y-59833333D01*
X148736904Y-59785714D01*
X148713095Y-59761904D01*
X148665476Y-59738095D01*
X148570238Y-59714285D01*
X148522619Y-59690476D01*
X148498809Y-59666666D01*
X148475000Y-59619047D01*
X148475000Y-59571428D01*
X148498809Y-59523809D01*
X148522619Y-59500000D01*
X148570238Y-59476190D01*
X148689285Y-59476190D01*
X148760714Y-59500000D01*
X149070238Y-59476190D02*
X149165476Y-59476190D01*
X149213095Y-59500000D01*
X149260714Y-59547619D01*
X149284523Y-59642857D01*
X149284523Y-59809523D01*
X149260714Y-59904761D01*
X149213095Y-59952380D01*
X149165476Y-59976190D01*
X149070238Y-59976190D01*
X149022619Y-59952380D01*
X148975000Y-59904761D01*
X148951190Y-59809523D01*
X148951190Y-59642857D01*
X148975000Y-59547619D01*
X149022619Y-59500000D01*
X149070238Y-59476190D01*
X145332142Y-59902380D02*
X145403571Y-59926190D01*
X145522619Y-59926190D01*
X145570238Y-59902380D01*
X145594047Y-59878571D01*
X145617857Y-59830952D01*
X145617857Y-59783333D01*
X145594047Y-59735714D01*
X145570238Y-59711904D01*
X145522619Y-59688095D01*
X145427380Y-59664285D01*
X145379761Y-59640476D01*
X145355952Y-59616666D01*
X145332142Y-59569047D01*
X145332142Y-59521428D01*
X145355952Y-59473809D01*
X145379761Y-59450000D01*
X145427380Y-59426190D01*
X145546428Y-59426190D01*
X145617857Y-59450000D01*
X146117857Y-59878571D02*
X146094047Y-59902380D01*
X146022619Y-59926190D01*
X145975000Y-59926190D01*
X145903571Y-59902380D01*
X145855952Y-59854761D01*
X145832142Y-59807142D01*
X145808333Y-59711904D01*
X145808333Y-59640476D01*
X145832142Y-59545238D01*
X145855952Y-59497619D01*
X145903571Y-59450000D01*
X145975000Y-59426190D01*
X146022619Y-59426190D01*
X146094047Y-59450000D01*
X146117857Y-59473809D01*
X146332142Y-59926190D02*
X146332142Y-59426190D01*
X146617857Y-59926190D02*
X146403571Y-59640476D01*
X146617857Y-59426190D02*
X146332142Y-59711904D01*
X148233333Y-66401190D02*
X148400000Y-66901190D01*
X148566666Y-66401190D01*
X149019047Y-66853571D02*
X148995238Y-66877380D01*
X148923809Y-66901190D01*
X148876190Y-66901190D01*
X148804761Y-66877380D01*
X148757142Y-66829761D01*
X148733333Y-66782142D01*
X148709523Y-66686904D01*
X148709523Y-66615476D01*
X148733333Y-66520238D01*
X148757142Y-66472619D01*
X148804761Y-66425000D01*
X148876190Y-66401190D01*
X148923809Y-66401190D01*
X148995238Y-66425000D01*
X149019047Y-66448809D01*
X149519047Y-66853571D02*
X149495238Y-66877380D01*
X149423809Y-66901190D01*
X149376190Y-66901190D01*
X149304761Y-66877380D01*
X149257142Y-66829761D01*
X149233333Y-66782142D01*
X149209523Y-66686904D01*
X149209523Y-66615476D01*
X149233333Y-66520238D01*
X149257142Y-66472619D01*
X149304761Y-66425000D01*
X149376190Y-66401190D01*
X149423809Y-66401190D01*
X149495238Y-66425000D01*
X149519047Y-66448809D01*
X143201190Y-60001190D02*
X143034523Y-59763095D01*
X142915476Y-60001190D02*
X142915476Y-59501190D01*
X143105952Y-59501190D01*
X143153571Y-59525000D01*
X143177380Y-59548809D01*
X143201190Y-59596428D01*
X143201190Y-59667857D01*
X143177380Y-59715476D01*
X143153571Y-59739285D01*
X143105952Y-59763095D01*
X142915476Y-59763095D01*
X143391666Y-59977380D02*
X143463095Y-60001190D01*
X143582142Y-60001190D01*
X143629761Y-59977380D01*
X143653571Y-59953571D01*
X143677380Y-59905952D01*
X143677380Y-59858333D01*
X143653571Y-59810714D01*
X143629761Y-59786904D01*
X143582142Y-59763095D01*
X143486904Y-59739285D01*
X143439285Y-59715476D01*
X143415476Y-59691666D01*
X143391666Y-59644047D01*
X143391666Y-59596428D01*
X143415476Y-59548809D01*
X143439285Y-59525000D01*
X143486904Y-59501190D01*
X143605952Y-59501190D01*
X143677380Y-59525000D01*
X143820238Y-59501190D02*
X144105952Y-59501190D01*
X143963095Y-60001190D02*
X143963095Y-59501190D01*
D12*
X142338750Y-65623750D02*
X142338750Y-64293750D01*
X143668750Y-65623750D02*
X142338750Y-65623750D01*
X142338750Y-63023750D02*
X142338750Y-60423750D01*
X144938750Y-63023750D02*
X142338750Y-63023750D01*
X144938750Y-65623750D02*
X144938750Y-63023750D01*
X142338750Y-60423750D02*
X150078750Y-60423750D01*
X144938750Y-65623750D02*
X150078750Y-65623750D01*
X150078750Y-65623750D02*
X150078750Y-60423750D01*
D10*
X129540000Y-54610000D02*
X129540000Y-72390000D01*
X99060000Y-54610000D02*
X129540000Y-54610000D01*
X99060000Y-59690000D02*
X99060000Y-54610000D01*
X96520000Y-59690000D02*
X99060000Y-59690000D01*
X96520000Y-67310000D02*
X96520000Y-59690000D01*
X99060000Y-67310000D02*
X96520000Y-67310000D01*
X99060000Y-72390000D02*
X99060000Y-67310000D01*
X99060000Y-72390000D02*
X129540000Y-72390000D01*
X140791130Y-63357083D02*
X141505416Y-63357083D01*
X141648273Y-63404702D01*
X141743511Y-63499940D01*
X141791130Y-63642797D01*
X141791130Y-63738035D01*
X141791130Y-62357083D02*
X141791130Y-62928511D01*
X141791130Y-62642797D02*
X140791130Y-62642797D01*
X140933988Y-62738035D01*
X141029226Y-62833273D01*
X141076845Y-62928511D01*
M02*
